<?xml version="1.0" encoding="UTF-8" standalone="no"?>
<svg
   viewBox="0 0 640 512"
   version="1.1"
   id="svg51"
   sodipodi:docname="volume-medium.svg"
   inkscape:version="1.1.2 (0a00cf5339, 2022-02-04, custom)"
   xmlns:inkscape="http://www.inkscape.org/namespaces/inkscape"
   xmlns:sodipodi="http://sodipodi.sourceforge.net/DTD/sodipodi-0.dtd"
   xmlns="http://www.w3.org/2000/svg"
   xmlns:svg="http://www.w3.org/2000/svg">
  <defs
     id="defs55" />
  <sodipodi:namedview
     id="namedview53"
     pagecolor="#ffffff"
     bordercolor="#666666"
     borderopacity="1.0"
     inkscape:pageshadow="2"
     inkscape:pageopacity="0.0"
     inkscape:pagecheckerboard="0"
     showgrid="false"
     inkscape:zoom="0.7359375"
     inkscape:cx="516.3482"
     inkscape:cy="274.47983"
     inkscape:window-width="1280"
     inkscape:window-height="800"
     inkscape:window-x="0"
     inkscape:window-y="0"
     inkscape:window-maximized="1"
     inkscape:current-layer="svg51" />
  <!--! Font Awesome Pro 6.1.1 by @fontawesome - https://fontawesome.com License - https://fontawesome.com/license (Commercial License) Copyright 2022 Fonticons, Inc. -->
  <path
     d="m 412.6,182 c -10.28,-8.334 -25.41,-6.867 -33.75,3.402 -8.406,10.24 -6.906,25.35 3.375,33.74 C 393.5,228.4 400,241.8 400,255.1 c 0,14.17 -6.5,27.59 -17.81,36.83 -10.28,8.396 -11.78,23.5 -3.375,33.74 4.719,5.806 11.62,8.802 18.56,8.802 5.344,0 10.75,-1.779 15.19,-5.399 C 435.1,311.5 448,284.6 448,255.1 448,225.6 435.1,200.4 412.6,182 Z m 60.5,-73.8 c -10.22,-8.334 -25.34,-6.898 -33.78,3.34 -8.406,10.24 -6.906,25.35 3.344,33.74 C 476.6,172.1 496,213.3 496,255.1 c 0,41.8 -19.44,82.1 -53.31,110.7 -10.25,8.396 -11.75,23.5 -3.344,33.74 4.75,5.775 11.62,8.771 18.56,8.771 5.375,0 10.75,-1.779 15.22,-5.431 C 518.2,366.9 544,313 544,255.1 544,197.2 518.2,145 473.1,108.2 Z M 301.2,34.98 c -11.5,-5.181 -25.01,-3.076 -34.43,5.29 L 131.8,160.1 H 48 c -26.51,0 -48,21.48 -48,47.96 v 95.92 c 0,26.48 21.49,47.96 48,47.96 h 83.84 l 134.9,119.8 c 5.96,5.26 13.56,8.06 21.26,8.06 4.438,0 8.959,-0.9314 13.16,-2.835 C 312.7,471.8 320,460.4 320,447.9 V 64.12 c 0,-12.57 -7.3,-23.99 -18.8,-29.14 z"
     id="path49"
     style="fill:#d9e0ee;fill-opacity:1"
     sodipodi:nodetypes="cccsccscsccccsccscsccccssssccscssc" />
</svg>
